#!OML:ASF H:\Terrain\Patient Classification 1\PLAYGROUND\JustinFriday\JustinFriday.ASF
:FULLY-SPECIFIED
:DEGREES
731
root 14.3588 18.9868 12.8578 167.845 -23.7209 -173.891
lowerback 14.934 3.10472 4.86973
upperback -7.18085 4.64059 -3.32991
thorax -15.9527 1.27444 -7.86831
lowerneck 12.0793 -8.99274 3.53605
upperneck 18.0209 -14.7638 3.33563
head 4.0585 -7.98609 0.481398
rclavicle 3.73715e-014 7.79236e-014
rhumerus 108.131 27.962 -165.727
rradius 19.0808
rwrist 127.961
rhand 17.8533 20.0103
rfingers 7.12502
rthumb 42.5303 -4.39959
lclavicle 3.73715e-014 7.79236e-014
lhumerus 112.844 5.52394 53.8375
lradius 23.9454
lwrist -5.1647
lhand -18.3768 -1.50009
lfingers 7.12502
lthumb 7.9067 28.332
rfemur 6.73852 -9.9462 12.5687
rtibia 79.4635
rfoot -12.7855 -12.8442
rtoes 2.66418
lfemur 7.87322 8.65447 4.56869
ltibia 92.9413
lfoot -6.62356 -8.16373
ltoes -26.6009
732
root 14.3789 18.9711 12.7941 167.225 -23.4257 -173.47
lowerback 15.1689 3.14282 5.04745
upperback -7.05452 4.75007 -3.33679
thorax -15.9149 1.31404 -8.0205
lowerneck 12.4365 -9.06622 4.15034
upperneck 17.5762 -14.7378 3.40749
head 3.79624 -7.95239 0.452877
rclavicle -7.95139e-014 9.54166e-015
rhumerus 108.236 28.0117 -166.266
rradius 19.1107
rwrist 128.385
rhand 17.6585 20.0506
rfingers 7.12502
rthumb 42.3479 -4.42184
lclavicle -7.95139e-014 9.54166e-015
lhumerus 113.147 5.08244 53.9258
lradius 23.7781
lwrist -5.61692
lhand -18.322 -1.64007
lfingers 7.12502
lthumb 7.95955 28.1901
rfemur 5.9045 -10.2068 12.5002
rtibia 79.409
rfoot -13.1149 -13.2256
rtoes 2.71554
lfemur 7.08378 8.87306 4.69186
ltibia 92.8847
lfoot -7.70041 -8.60253
ltoes -26.7909
733
root 14.3935 18.9645 12.7229 166.817 -23.1153 -173.025
lowerback 15.2623 3.19397 5.33259
upperback -7.04802 4.88179 -3.39324
thorax -15.9178 1.33974 -8.29252
lowerneck 12.4489 -9.1407 5.0313
upperneck 17.7598 -14.7773 3.13865
head 3.77783 -7.94459 0.230359
rclavicle -1.26427e-013 3.33958e-014
rhumerus 107.878 28.3389 -167.873
rradius 19.1615
rwrist 129.819
rhand 17.1915 20.2047
rfingers 7.12502
rthumb 41.9103 -4.41528
lclavicle -1.26427e-013 3.33958e-014
lhumerus 113.41 4.5907 53.868
lradius 23.5373
lwrist -6.27263
lhand -18.6248 -1.75278
lfingers 7.12502
lthumb 7.66735 28.0882
rfemur 4.84646 -10.5167 12.4834
rtibia 79.24
rfoot -13.5923 -13.367
rtoes 3.98689
lfemur 6.1908 9.14633 4.75999
ltibia 92.68
lfoot -8.87417 -9.0246
ltoes -27.1268
734
root 14.4066 18.9574 12.6556 166.127 -22.7688 -172.544
lowerback 15.5496 3.22845 5.64685
upperback -6.90301 5.0278 -3.37463
thorax -15.8737 1.38569 -8.50749
lowerneck 12.3632 -9.15184 5.73157
upperneck 17.9544 -14.7777 3.034
head 3.8091 -7.91811 0.0795382
rclavicle 2.94201e-014 -5.24792e-014
rhumerus 107.565 28.6838 -169.182
rradius 19.2226
rwrist 131.053
rhand 16.804 20.401
rfingers 7.12502
rthumb 41.5469 -4.33908
lclavicle 2.94201e-014 -5.24792e-014
lhumerus 113.769 4.23163 53.8854
lradius 23.2618
lwrist -6.8941
lhand -18.8618 -1.89251
lfingers 7.12502
lthumb 7.43854 27.9567
rfemur 4.06948 -10.7644 12.4974
rtibia 78.9467
rfoot -14.0118 -13.4909
rtoes 4.75735
lfemur 5.56239 9.31049 4.81897
ltibia 92.3674
lfoot -9.99677 -8.71753
ltoes -27.6899
735
root 14.4175 18.9491 12.586 165.416 -22.3749 -172.024
lowerback 15.7054 3.29415 5.9018
upperback -6.68023 5.21706 -3.24159
thorax -15.6562 1.48518 -8.54513
lowerneck 12.2328 -9.10957 6.06087
upperneck 18.009 -14.7466 3.19265
head 3.84577 -7.8824 0.0690518
rclavicle 9.62118e-014 2.54444e-014
rhumerus 107.225 29.1483 -170.323
rradius 19.2488
rwrist 132.232
rhand 16.4227 20.5507
rfingers 7.12502
rthumb 41.1891 -4.30529
lclavicle 9.62118e-014 2.54444e-014
lhumerus 114.148 4.06589 53.9526
lradius 23.0105
lwrist -7.41781
lhand -19.2049 -1.9736
lfingers 7.12502
lthumb 7.10733 27.8871
rfemur 3.32742 -11.0066 12.5733
rtibia 78.5466
rfoot -14.1891 -13.4832
rtoes 5.70489
lfemur 4.97106 9.46477 4.95668
ltibia 91.9854
lfoot -11.0035 -8.4202
ltoes -27.8964
736
root 14.4323 18.9334 12.5251 164.895 -21.978 -171.682
lowerback 15.7619 3.40402 6.03118
upperback -6.50331 5.41409 -3.1843
thorax -15.4334 1.59297 -8.59349
lowerneck 12.1482 -9.14752 6.57317
upperneck 18.0078 -14.7653 3.17822
head 3.82534 -7.8659 -0.0161554
rclavicle 1.23246e-013 -4.77083e-015
rhumerus 107.266 29.3371 -170.677
rradius 19.3212
rwrist 132.672
rhand 16.2685 20.6129
rfingers 7.12502
rthumb 41.0443 -4.28941
lclavicle 1.23246e-013 -4.77083e-015
lhumerus 114.557 3.96361 53.9136
lradius 22.801
lwrist -7.51479
lhand -19.1932 -2.0546
lfingers 7.12502
lthumb 7.1187 27.8057
rfemur 2.42218 -11.3032 12.3995
rtibia 78.1798
rfoot -14.7257 -13.0888
rtoes 6.81683
lfemur 4.22135 9.69349 4.92705
ltibia 91.5989
lfoot -11.5939 -8.00128
ltoes -27.4162
